<svg xmlns="http://www.w3.org/2000/svg" xmlns:xlink="http://www.w3.org/1999/xlink" contentStyleType="text/css" data-diagram-type="DESCRIPTION" height="279px" preserveAspectRatio="none" style="width:1297px;height:279px;background:#FFFFFF;" version="1.1" viewBox="0 0 1297 279" width="1297px" zoomAndPan="magnify"><title>&#32068;&#32340;&#32232;&#25104;&#22259;&#65288;&#20363;&#65306;1&#22823;&#38538;&#65289;</title><defs/><g><g class="title" data-source-line="1"><text fill="#000000" font-family="sans-serif" font-size="14" font-weight="bold" lengthAdjust="spacing" textLength="163.7405" x="559.9905" y="22.9951">&#32068;&#32340;&#32232;&#25104;&#22259;&#65288;&#20363;&#65306;1&#22823;&#38538;&#65289;</text></g><!--entity B1--><g class="entity" data-qualified-name="B1" data-source-line="11" id="ent0002"><rect fill="#FA8072" height="36.2969" rx="5" ry="5" style="stroke:#181818;stroke-width:0.5;" width="56.9071" x="620.91" y="44.2969"/><text fill="#000000" font-family="'Meiryo UI, sans-serif'" font-size="14" lengthAdjust="spacing" textLength="36.9071" x="630.91" y="67.292">1&#22823;&#38538;</text></g><!--entity C11--><g class="entity" data-qualified-name="C11" data-source-line="13" id="ent0003"><rect fill="#FFA07A" height="36.2969" rx="5" ry="5" style="stroke:#181818;stroke-width:0.5;" width="65.8143" x="176.45" y="140.5969"/><text fill="#000000" font-family="'Meiryo UI, sans-serif'" font-size="14" lengthAdjust="spacing" textLength="45.8143" x="186.45" y="163.592">11&#20013;&#38538;</text></g><!--entity C12--><g class="entity" data-qualified-name="C12" data-source-line="14" id="ent0004"><rect fill="#FFA07A" height="36.2969" rx="5" ry="5" style="stroke:#181818;stroke-width:0.5;" width="65.8143" x="506.45" y="140.5969"/><text fill="#000000" font-family="'Meiryo UI, sans-serif'" font-size="14" lengthAdjust="spacing" textLength="45.8143" x="516.45" y="163.592">12&#20013;&#38538;</text></g><!--entity C13--><g class="entity" data-qualified-name="C13" data-source-line="15" id="ent0005"><rect fill="#FFA07A" height="36.2969" rx="5" ry="5" style="stroke:#181818;stroke-width:0.5;" width="65.8143" x="726.45" y="140.5969"/><text fill="#000000" font-family="'Meiryo UI, sans-serif'" font-size="14" lengthAdjust="spacing" textLength="45.8143" x="736.45" y="163.592">13&#20013;&#38538;</text></g><!--entity C14--><g class="entity" data-qualified-name="C14" data-source-line="16" id="ent0006"><rect fill="#FFA07A" height="36.2969" rx="5" ry="5" style="stroke:#181818;stroke-width:0.5;" width="65.8143" x="1056.45" y="140.5969"/><text fill="#000000" font-family="'Meiryo UI, sans-serif'" font-size="14" lengthAdjust="spacing" textLength="45.8143" x="1066.45" y="163.592">14&#20013;&#38538;</text></g><!--entity P111--><g class="entity" data-qualified-name="P111" data-source-line="23" id="ent0011"><rect fill="#FFE4E1" height="36.2969" rx="5" ry="5" style="stroke:#181818;stroke-width:0.5;" width="74.7216" x="7" y="236.8869"/><text fill="#000000" font-family="'Meiryo UI, sans-serif'" font-size="14" lengthAdjust="spacing" textLength="54.7216" x="17" y="259.882">111&#23567;&#38538;</text></g><!--entity P112--><g class="entity" data-qualified-name="P112" data-source-line="24" id="ent0012"><rect fill="#FFE4E1" height="36.2969" rx="5" ry="5" style="stroke:#181818;stroke-width:0.5;" width="74.7216" x="117" y="236.8869"/><text fill="#000000" font-family="'Meiryo UI, sans-serif'" font-size="14" lengthAdjust="spacing" textLength="54.7216" x="127" y="259.882">112&#23567;&#38538;</text></g><!--entity P113--><g class="entity" data-qualified-name="P113" data-source-line="25" id="ent0013"><rect fill="#FFE4E1" height="36.2969" rx="5" ry="5" style="stroke:#181818;stroke-width:0.5;" width="74.7216" x="227" y="236.8869"/><text fill="#000000" font-family="'Meiryo UI, sans-serif'" font-size="14" lengthAdjust="spacing" textLength="54.7216" x="237" y="259.882">113&#23567;&#38538;</text></g><!--entity P121--><g class="entity" data-qualified-name="P121" data-source-line="30" id="ent0017"><rect fill="#FFE4E1" height="36.2969" rx="5" ry="5" style="stroke:#181818;stroke-width:0.5;" width="74.7216" x="337" y="236.8869"/><text fill="#000000" font-family="'Meiryo UI, sans-serif'" font-size="14" lengthAdjust="spacing" textLength="54.7216" x="347" y="259.882">121&#23567;&#38538;</text></g><!--entity P122--><g class="entity" data-qualified-name="P122" data-source-line="31" id="ent0018"><rect fill="#FFE4E1" height="36.2969" rx="5" ry="5" style="stroke:#181818;stroke-width:0.5;" width="74.7216" x="447" y="236.8869"/><text fill="#000000" font-family="'Meiryo UI, sans-serif'" font-size="14" lengthAdjust="spacing" textLength="54.7216" x="457" y="259.882">122&#23567;&#38538;</text></g><!--entity P123--><g class="entity" data-qualified-name="P123" data-source-line="32" id="ent0019"><rect fill="#FFE4E1" height="36.2969" rx="5" ry="5" style="stroke:#181818;stroke-width:0.5;" width="74.7216" x="557" y="236.8869"/><text fill="#000000" font-family="'Meiryo UI, sans-serif'" font-size="14" lengthAdjust="spacing" textLength="54.7216" x="567" y="259.882">123&#23567;&#38538;</text></g><!--entity P131--><g class="entity" data-qualified-name="P131" data-source-line="37" id="ent0023"><rect fill="#FFE4E1" height="36.2969" rx="5" ry="5" style="stroke:#181818;stroke-width:0.5;" width="74.7216" x="667" y="236.8869"/><text fill="#000000" font-family="'Meiryo UI, sans-serif'" font-size="14" lengthAdjust="spacing" textLength="54.7216" x="677" y="259.882">131&#23567;&#38538;</text></g><!--entity P132--><g class="entity" data-qualified-name="P132" data-source-line="38" id="ent0024"><rect fill="#FFE4E1" height="36.2969" rx="5" ry="5" style="stroke:#181818;stroke-width:0.5;" width="74.7216" x="777" y="236.8869"/><text fill="#000000" font-family="'Meiryo UI, sans-serif'" font-size="14" lengthAdjust="spacing" textLength="54.7216" x="787" y="259.882">132&#23567;&#38538;</text></g><!--entity P133--><g class="entity" data-qualified-name="P133" data-source-line="39" id="ent0025"><rect fill="#FFE4E1" height="36.2969" rx="5" ry="5" style="stroke:#181818;stroke-width:0.5;" width="74.7216" x="887" y="236.8869"/><text fill="#000000" font-family="'Meiryo UI, sans-serif'" font-size="14" lengthAdjust="spacing" textLength="54.7216" x="897" y="259.882">133&#23567;&#38538;</text></g><!--entity P141--><g class="entity" data-qualified-name="P141" data-source-line="44" id="ent0029"><rect fill="#FFE4E1" height="36.2969" rx="5" ry="5" style="stroke:#181818;stroke-width:0.5;" width="74.7216" x="997" y="236.8869"/><text fill="#000000" font-family="'Meiryo UI, sans-serif'" font-size="14" lengthAdjust="spacing" textLength="54.7216" x="1007" y="259.882">141&#23567;&#38538;</text></g><!--entity P142--><g class="entity" data-qualified-name="P142" data-source-line="45" id="ent0030"><rect fill="#FFE4E1" height="36.2969" rx="5" ry="5" style="stroke:#181818;stroke-width:0.5;" width="74.7216" x="1107" y="236.8869"/><text fill="#000000" font-family="'Meiryo UI, sans-serif'" font-size="14" lengthAdjust="spacing" textLength="54.7216" x="1117" y="259.882">142&#23567;&#38538;</text></g><!--entity P143--><g class="entity" data-qualified-name="P143" data-source-line="46" id="ent0031"><rect fill="#FFE4E1" height="36.2969" rx="5" ry="5" style="stroke:#181818;stroke-width:0.5;" width="74.7216" x="1217" y="236.8869"/><text fill="#000000" font-family="'Meiryo UI, sans-serif'" font-size="14" lengthAdjust="spacing" textLength="54.7216" x="1227" y="259.882">143&#23567;&#38538;</text></g><!--link B1 to C11--><g class="link" data-entity-1="ent0002" data-entity-2="ent0003" data-link-type="dependency" data-source-line="18" id="lnk7"><path d="M620.49,69.6269 C542.1,86.4269 331.4868,131.5694 248.3468,149.3894" fill="none" id="B1-to-C11" style="stroke:#181818;stroke-width:1;"/><polygon fill="#181818" points="242.48,150.6469,252.1184,152.6718,247.369,149.599,250.4418,144.8495,242.48,150.6469" style="stroke:#181818;stroke-width:1;"/></g><!--link B1 to C12--><g class="link" data-entity-1="ent0002" data-entity-2="ent0004" data-link-type="dependency" data-source-line="19" id="lnk8"><path d="M628.93,80.9569 C609.17,97.8969 583.9559,119.5125 564.2359,136.4125" fill="none" id="B1-to-C12" style="stroke:#181818;stroke-width:1;"/><polygon fill="#181818" points="559.68,140.3169,569.1167,137.4976,563.4766,137.0632,563.9109,131.4231,559.68,140.3169" style="stroke:#181818;stroke-width:1;"/></g><!--link B1 to C13--><g class="link" data-entity-1="ent0002" data-entity-2="ent0005" data-link-type="dependency" data-source-line="20" id="lnk9"><path d="M669.79,80.9569 C689.55,97.8969 714.7641,119.5125 734.4841,136.4125" fill="none" id="B1-to-C13" style="stroke:#181818;stroke-width:1;"/><polygon fill="#181818" points="739.04,140.3169,734.8091,131.4231,735.2434,137.0632,729.6033,137.4976,739.04,140.3169" style="stroke:#181818;stroke-width:1;"/></g><!--link B1 to C14--><g class="link" data-entity-1="ent0002" data-entity-2="ent0006" data-link-type="dependency" data-source-line="21" id="lnk10"><path d="M678.23,69.6269 C756.62,86.4269 967.2332,131.5694 1050.3732,149.3894" fill="none" id="B1-to-C14" style="stroke:#181818;stroke-width:1;"/><polygon fill="#181818" points="1056.24,150.6469,1048.2782,144.8495,1051.351,149.599,1046.6016,152.6718,1056.24,150.6469" style="stroke:#181818;stroke-width:1;"/></g><!--link C11 to P111--><g class="link" data-entity-1="ent0003" data-entity-2="ent0011" data-link-type="dependency" data-source-line="26" id="lnk14"><path d="M178.71,177.2569 C149.17,194.1369 109.9194,216.5699 80.3294,233.4799" fill="none" id="C11-to-P111" style="stroke:#181818;stroke-width:1;"/><polygon fill="#181818" points="75.12,236.4569,84.9187,235.4642,79.4611,233.976,80.9493,228.5184,75.12,236.4569" style="stroke:#181818;stroke-width:1;"/></g><!--link C11 to P112--><g class="link" data-entity-1="ent0003" data-entity-2="ent0012" data-link-type="dependency" data-source-line="27" id="lnk15"><path d="M199.27,177.0369 C189.41,193.9469 177.4921,214.3735 167.5921,231.3535" fill="none" id="C11-to-P112" style="stroke:#181818;stroke-width:1;"/><polygon fill="#181818" points="164.57,236.5369,172.5587,230.7766,167.0884,232.2174,165.6476,226.7471,164.57,236.5369" style="stroke:#181818;stroke-width:1;"/></g><!--link C11 to P113--><g class="link" data-entity-1="ent0003" data-entity-2="ent0013" data-link-type="dependency" data-source-line="28" id="lnk16"><path d="M219.45,177.0369 C229.31,193.9469 241.2279,214.3735 251.1279,231.3535" fill="none" id="C11-to-P113" style="stroke:#181818;stroke-width:1;"/><polygon fill="#181818" points="254.15,236.5369,253.0724,226.7471,251.6316,232.2174,246.1613,230.7766,254.15,236.5369" style="stroke:#181818;stroke-width:1;"/></g><!--link C12 to P121--><g class="link" data-entity-1="ent0004" data-entity-2="ent0017" data-link-type="dependency" data-source-line="33" id="lnk20"><path d="M508.71,177.2569 C479.17,194.1369 439.9194,216.5699 410.3294,233.4799" fill="none" id="C12-to-P121" style="stroke:#181818;stroke-width:1;"/><polygon fill="#181818" points="405.12,236.4569,414.9187,235.4642,409.4611,233.976,410.9493,228.5184,405.12,236.4569" style="stroke:#181818;stroke-width:1;"/></g><!--link C12 to P122--><g class="link" data-entity-1="ent0004" data-entity-2="ent0018" data-link-type="dependency" data-source-line="34" id="lnk21"><path d="M529.27,177.0369 C519.41,193.9469 507.4921,214.3735 497.5921,231.3535" fill="none" id="C12-to-P122" style="stroke:#181818;stroke-width:1;"/><polygon fill="#181818" points="494.57,236.5369,502.5587,230.7766,497.0884,232.2174,495.6476,226.7471,494.57,236.5369" style="stroke:#181818;stroke-width:1;"/></g><!--link C12 to P123--><g class="link" data-entity-1="ent0004" data-entity-2="ent0019" data-link-type="dependency" data-source-line="35" id="lnk22"><path d="M549.45,177.0369 C559.31,193.9469 571.2279,214.3735 581.1279,231.3535" fill="none" id="C12-to-P123" style="stroke:#181818;stroke-width:1;"/><polygon fill="#181818" points="584.15,236.5369,583.0724,226.7471,581.6316,232.2174,576.1613,230.7766,584.15,236.5369" style="stroke:#181818;stroke-width:1;"/></g><!--link C13 to P131--><g class="link" data-entity-1="ent0005" data-entity-2="ent0023" data-link-type="dependency" data-source-line="40" id="lnk26"><path d="M749.27,177.0369 C739.41,193.9469 727.4921,214.3735 717.5921,231.3535" fill="none" id="C13-to-P131" style="stroke:#181818;stroke-width:1;"/><polygon fill="#181818" points="714.57,236.5369,722.5587,230.7766,717.0884,232.2174,715.6476,226.7471,714.57,236.5369" style="stroke:#181818;stroke-width:1;"/></g><!--link C13 to P132--><g class="link" data-entity-1="ent0005" data-entity-2="ent0024" data-link-type="dependency" data-source-line="41" id="lnk27"><path d="M769.45,177.0369 C779.31,193.9469 791.2279,214.3735 801.1279,231.3535" fill="none" id="C13-to-P132" style="stroke:#181818;stroke-width:1;"/><polygon fill="#181818" points="804.15,236.5369,803.0724,226.7471,801.6316,232.2174,796.1613,230.7766,804.15,236.5369" style="stroke:#181818;stroke-width:1;"/></g><!--link C13 to P133--><g class="link" data-entity-1="ent0005" data-entity-2="ent0025" data-link-type="dependency" data-source-line="42" id="lnk28"><path d="M790.01,177.2569 C819.55,194.1369 858.8006,216.5699 888.3906,233.4799" fill="none" id="C13-to-P133" style="stroke:#181818;stroke-width:1;"/><polygon fill="#181818" points="893.6,236.4569,887.7707,228.5184,889.2589,233.976,883.8013,235.4642,893.6,236.4569" style="stroke:#181818;stroke-width:1;"/></g><!--link C14 to P141--><g class="link" data-entity-1="ent0006" data-entity-2="ent0029" data-link-type="dependency" data-source-line="47" id="lnk32"><path d="M1079.27,177.0369 C1069.41,193.9469 1057.4921,214.3735 1047.5921,231.3535" fill="none" id="C14-to-P141" style="stroke:#181818;stroke-width:1;"/><polygon fill="#181818" points="1044.57,236.5369,1052.5587,230.7766,1047.0884,232.2174,1045.6476,226.7471,1044.57,236.5369" style="stroke:#181818;stroke-width:1;"/></g><!--link C14 to P142--><g class="link" data-entity-1="ent0006" data-entity-2="ent0030" data-link-type="dependency" data-source-line="48" id="lnk33"><path d="M1099.45,177.0369 C1109.31,193.9469 1121.2279,214.3735 1131.1279,231.3535" fill="none" id="C14-to-P142" style="stroke:#181818;stroke-width:1;"/><polygon fill="#181818" points="1134.15,236.5369,1133.0724,226.7471,1131.6316,232.2174,1126.1613,230.7766,1134.15,236.5369" style="stroke:#181818;stroke-width:1;"/></g><!--link C14 to P143--><g class="link" data-entity-1="ent0006" data-entity-2="ent0031" data-link-type="dependency" data-source-line="49" id="lnk34"><path d="M1120.01,177.2569 C1149.55,194.1369 1188.8006,216.5699 1218.3906,233.4799" fill="none" id="C14-to-P143" style="stroke:#181818;stroke-width:1;"/><polygon fill="#181818" points="1223.6,236.4569,1217.7707,228.5184,1219.2589,233.976,1213.8013,235.4642,1223.6,236.4569" style="stroke:#181818;stroke-width:1;"/></g><!--SRC=[TT2nIiD07CVn_PxYYAi5xt_dwc114AoKYWzmcZCUDdSbEOSYRWvL1nsSwYhe8WWYAXIVfhKuzHLCIahk7xXCzmjVaa_YjEihEl-ucdy_p3zVVaVtiyVtnMGq_RbTJCPizlJyDxvPJAw9imFgB3sopjcKnZfJnqvRGqX-fir0PZAbvIrfak9v5uGMLy-UcxXjCwCooZQMjxeoZhL9wEPoTMIMQ5ED7MlSlamLZJfAPqDB3tVNQIvDtifLfayYSab8_OQeeaLKvdIRqRK3sKzBZf-mwTVhgccp8jhJoQchIZy4548uv2ZauL2WKE2G5E1MQwiqrKUeZxm-YiONiTdRtUgvNLP-KqVdRjYpkS8Xu1228SSXzyFofvMEyat-07zmJ0HCX20HC162HC14Q12XWW3p1_YZGUIOo8D4ZeayIEIOo1j4Na4uymVueq4Kc2Y2H8698aWKc2WQH5511FC7-8F_0m00]--></g></svg>